<svg width="36" height="20" viewBox="0 0 36 20" fill="none" xmlns="http://www.w3.org/2000/svg">
	<path fill-rule="evenodd" clip-rule="evenodd" d="M7.017 7.10713C7.017 5.2226 6.27779 3.41522 4.96185 2.08263C3.64591 0.750034 1.86112 0.00146484 0.000148713 0.00146484C-8.17423e-08 0.00146484 0 0.00146484 0 0.00146484L0 4.8786C0 6.76313 0.73921 8.57051 2.05515 9.9031C3.37109 11.2357 5.15588 11.9843 7.01685 11.9843C7.017 11.9843 7.017 11.9843 7.017 11.9843V7.10713Z" fill="#222222"/>
	<path fill-rule="evenodd" clip-rule="evenodd" d="M28.25 7.05581C28.25 5.18451 27.5126 3.38981 26.1998 2.06656C24.8871 0.743317 23.1066 0 21.2501 0C21.25 0 21.25 0 21.25 0V11.8987H28.25V7.05581Z" fill="#222222"/>
	<path fill-rule="evenodd" clip-rule="evenodd" d="M36.0001 0L36 0C34.1435 0 32.363 0.74864 31.0503 2.08136C29.7375 3.41408 29.0001 5.22163 29.0001 7.10634C29.0001 12.8551 29.0001 20 29.0001 20H29.0003C30.8567 20 32.6372 19.2514 33.95 17.9186C35.2627 16.5859 36.0001 14.7784 36.0001 12.8937C36.0001 7.14491 36.0001 0 36.0001 0Z" fill="#222222"/>
	<path fill-rule="evenodd" clip-rule="evenodd" d="M20 7.84814H13V20H13.0001C14.8566 20 16.6371 19.2409 17.9498 17.8895C19.2626 16.5381 20 14.7052 20 12.7941C20 10.1761 20 7.84814 20 7.84814Z" fill="#222222"/>
	<path fill-rule="evenodd" clip-rule="evenodd" d="M20.009 7.10581V7.10566C20.009 5.22114 19.2697 3.41375 17.9538 2.08116C16.6379 0.748567 14.8531 0 12.9922 0C9.49403 0 5.99995 0 5.99995 0V0.000150595C5.99995 1.88468 6.7391 3.69206 8.055 5.02465C9.37107 6.35725 11.1557 7.10581 13.0168 7.10581C16.515 7.10581 20.009 7.10581 20.009 7.10581Z" fill="#222222"/>
</svg>
